<svg width="21" height="19" viewBox="0 0 21 19" fill="none" xmlns="http://www.w3.org/2000/svg">
<g filter="url(#filter0_d_1_18714)">
<path d="M1.61755 5.61474C1.61755 2.95285 3.76772 0.749878 6.48241 0.749878C8.6044 0.749878 9.97676 2.10864 10.6176 2.93661C11.2584 2.10864 12.6308 0.749878 14.7527 0.749878C17.4682 0.749878 19.6176 2.9529 19.6176 5.61474C19.6176 6.77975 19.1504 7.9361 18.471 9.01488C17.7892 10.0975 16.8696 11.1402 15.9076 12.0876C14.5743 13.4007 13.0933 14.5886 12.031 15.4406C11.5794 15.8028 11.2035 16.1043 10.9469 16.3289C10.7583 16.4938 10.4768 16.4938 10.2883 16.3289C10.0316 16.1043 9.6557 15.8028 9.20414 15.4406C8.14186 14.5886 6.66081 13.4007 5.32752 12.0876C4.36557 11.1402 3.44591 10.0975 2.76414 9.01488C2.08479 7.9361 1.61755 6.77975 1.61755 5.61474ZM6.48241 1.74988C4.32684 1.74988 2.61755 3.49826 2.61755 5.61474C2.61755 6.51731 2.98308 7.48595 3.61032 8.48196C4.23514 9.47408 5.09588 10.4559 6.0292 11.3751C7.32788 12.6541 8.70178 13.7549 9.75151 14.596C10.0748 14.8551 10.3674 15.0895 10.6176 15.2969C10.8677 15.0895 11.1603 14.8551 11.4836 14.596C12.5334 13.7549 13.9073 12.6541 15.2059 11.3751C16.1393 10.4559 17 9.47408 17.6248 8.48196C18.2521 7.48595 18.6176 6.51731 18.6176 5.61474C18.6176 3.49821 16.909 1.74988 14.7527 1.74988C12.6582 1.74988 11.4357 3.45199 11.1209 3.96016C10.8903 4.33238 10.3448 4.33237 10.1143 3.96015C9.79945 3.45198 8.57699 1.74988 6.48241 1.74988Z" fill="#1F2026"/>
</g>
<defs>
<filter id="filter0_d_1_18714" x="-2.38245" y="0.749878" width="26" height="23.7026" filterUnits="userSpaceOnUse" color-interpolation-filters="sRGB">
<feFlood flood-opacity="0" result="BackgroundImageFix"/>
<feColorMatrix in="SourceAlpha" type="matrix" values="0 0 0 0 0 0 0 0 0 0 0 0 0 0 0 0 0 0 127 0" result="hardAlpha"/>
<feOffset dy="4"/>
<feGaussianBlur stdDeviation="2"/>
<feComposite in2="hardAlpha" operator="out"/>
<feColorMatrix type="matrix" values="0 0 0 0 0 0 0 0 0 0 0 0 0 0 0 0 0 0 0.25 0"/>
<feBlend mode="normal" in2="BackgroundImageFix" result="effect1_dropShadow_1_18714"/>
<feBlend mode="normal" in="SourceGraphic" in2="effect1_dropShadow_1_18714" result="shape"/>
</filter>
</defs>
</svg>
